<?xml version="1.0" encoding="iso-8859-1"?>
<!-- Uploaded to: SVG Repo, www.svgrepo.com, Generator: SVG Repo Mixer Tools -->
<svg height="800px" width="800px" version="1.1" id="Layer_1" xmlns="http://www.w3.org/2000/svg" xmlns:xlink="http://www.w3.org/1999/xlink" 
	 viewBox="0 0 512.001 512.001" xml:space="preserve">
<g>
	<path style="fill:#FFCF65;" d="M174.233,228.497c-3.167-3.167-6.579-5.935-10.177-8.309c-3.597,2.373-7.01,5.143-10.176,8.309
		c-13.429,13.427-19.666,31.282-18.833,48.864l54.509,18.653C197.425,272.852,191.049,245.313,174.233,228.497z"/>
	<path style="fill:#FFCF65;" d="M51.358,372.305c-15.647,0.661-31.102,6.891-43.049,18.838c-3.166,3.166-5.935,6.579-8.309,10.177
		c2.374,3.597,5.143,7.01,8.31,10.176c24.022,24.023,62.193,25.182,87.638,3.571L51.358,372.305z"/>
</g>
<path style="fill:#FFB450;" d="M170.89,282.586c-50.066-15.422-77.358-39.84-77.358-84.55c0-41.054,30.591-74.85,70.205-80.112
	c-0.003-0.141-0.019-0.278-0.021-0.417c-84.391,5.547-151.137,75.688-151.137,161.482c0,81.282,102.535,210.784,218.813,137.383
	c4.295-2.711,7.139-7.198,7.993-12.203C243.545,379.769,248.963,306.634,170.89,282.586z"/>
<path style="fill:#FF4B4B;" d="M239.389,404.13c3.544-20.87,7.955-77.202-39.438-108.175c-34.465,24.321-16.381,52.15-35.013,70.782
	c-22.266,22.265-41.997,12.378-60.28,54.494l-0.723,1.738c36.463,19.599,80.829,22.819,127.419-6.573
	C235.667,413.675,238.535,409.157,239.389,404.13z"/>
<g>
	<path style="fill:#FFCF65;" d="M186.472,117.078c11.645-7.734,19.329-20.953,19.329-35.979c0-2.262-0.226-4.466-0.561-6.634
		c-2.168-0.335-4.373-0.561-6.634-0.561c-19.558,0-35.983,13.033-41.277,30.871c-0.896,3.021-3.101,5.482-6.122,6.375
		c-84.872,25.07-110.371,80.299-105.322,124.915c6.259,55.286,59.705,105.553,86.929,120.178c1.384,0.741,2.857,1.089,4.321,1.089
		c3.259,0,6.41-1.741,8.063-4.813c2.393-4.455,0.723-9.991-3.723-12.384c-25-13.429-72.241-60.375-77.41-106.125
		c-4.067-35.923,16.833-80.382,85.169-103.088c4.199-1.395,8.689,0.762,10.595,4.757c6.928,14.513,21.619,24.577,38.778,24.577
		c2.262,0,4.466-0.226,6.634-0.562c0.335-2.168,0.561-4.373,0.561-6.634C205.8,138.031,198.117,124.812,186.472,117.078z"/>
	<circle style="fill:#FFCF65;" cx="155.429" cy="412.183" r="9.143"/>
	<circle style="fill:#FFCF65;" cx="210.286" cy="348.183" r="9.143"/>
	<path style="fill:#FFCF65;" d="M337.768,283.505c3.167,3.167,6.579,5.935,10.177,8.309c3.597-2.373,7.01-5.143,10.176-8.309
		c13.429-13.427,19.666-31.282,18.833-48.864l-54.509-18.653C314.575,239.15,320.952,266.689,337.768,283.505z"/>
	<path style="fill:#FFCF65;" d="M460.642,139.698c15.647-0.661,31.102-6.891,43.049-18.838c3.167-3.167,5.936-6.579,8.31-10.177
		c-2.374-3.597-5.143-7.01-8.31-10.176c-24.022-24.023-62.192-25.182-87.638-3.571L460.642,139.698z"/>
</g>
<path style="fill:#FFB450;" d="M341.11,229.417c50.066,15.422,77.358,39.84,77.358,84.55c0,41.054-30.591,74.85-70.205,80.112
	c0.003,0.141,0.019,0.277,0.021,0.417c84.39-5.549,151.137-75.689,151.137-161.483c0-81.282-102.535-210.784-218.813-137.383
	c-4.295,2.711-7.139,7.198-7.993,12.203C268.455,132.233,263.037,205.369,341.11,229.417z"/>
<path style="fill:#FF4B4B;" d="M272.613,107.873c-3.544,20.87-7.955,77.202,39.438,108.175
	c34.465-24.321,16.381-52.15,35.013-70.782c22.266-22.265,41.997-12.378,60.28-54.494l0.723-1.738
	c-36.463-19.599-80.829-22.819-127.419,6.573C276.334,98.326,273.466,102.844,272.613,107.873z"/>
<g>
	<path style="fill:#FFCF65;" d="M325.529,394.924c-11.645,7.734-19.329,20.954-19.329,35.979c0,2.262,0.226,4.466,0.561,6.634
		c2.168,0.335,4.373,0.561,6.634,0.561c19.558,0,35.983-13.033,41.277-30.871c0.896-3.021,3.101-5.482,6.122-6.375
		c84.872-25.07,110.371-80.299,105.322-124.915c-6.259-55.286-59.705-105.553-86.929-120.178c-1.384-0.741-2.857-1.089-4.321-1.089
		c-3.259,0-6.41,1.741-8.063,4.813c-2.393,4.455-0.723,9.991,3.723,12.384c25,13.429,72.241,60.375,77.41,106.125
		c4.067,35.923-16.833,80.382-85.169,103.088c-4.199,1.395-8.689-0.762-10.595-4.757c-6.928-14.513-21.619-24.577-38.778-24.577
		c-2.262,0-4.466,0.226-6.634,0.562c-0.335,2.168-0.561,4.373-0.561,6.634C306.2,373.97,313.883,387.19,325.529,394.924z"/>
	<circle style="fill:#FFCF65;" cx="356.571" cy="99.818" r="9.143"/>
	<circle style="fill:#FFCF65;" cx="301.714" cy="163.818" r="9.143"/>
</g>
</svg>