<?xml version="1.0" encoding="iso-8859-1"?>
<!-- Uploaded to: SVG Repo, www.svgrepo.com, Generator: SVG Repo Mixer Tools -->
<svg height="800px" width="800px" version="1.1" id="Layer_1" xmlns="http://www.w3.org/2000/svg" xmlns:xlink="http://www.w3.org/1999/xlink" 
	 viewBox="0 0 512 512" xml:space="preserve">
<circle style="fill:#A05F32;" cx="256" cy="255.998" r="255.998"/>
<circle style="fill:#FFE388;" cx="256" cy="255.998" r="209.486"/>
<circle style="fill:#E2B759;" cx="256" cy="255.998" r="136.963"/>
<circle style="fill:#EAC363;" cx="234.642" cy="277.335" r="115.605"/>
<path style="fill:#A05F32;" d="M256,46.507v-8.449c-11.501,2.593-24.363,6.41-37.719,12.051C240.661,45.953,256,46.507,256,46.507z"
	/>
<path style="opacity:0.2;enable-background:new    ;" d="M161.805,444.963C51.996,384.117,16.938,240.775,85.491,135.602
	c38.007-58.313,95.285-78.525,132.79-85.493c13.356-5.637,26.218-9.458,37.719-12.051V0C114.615,0,0.002,114.613,0.002,255.998
	S114.615,512,256,512c44.18,0,85.746-11.192,122.019-30.893C279.771,488.899,210.536,471.967,161.805,444.963z"/>
<path style="opacity:0.1;enable-background:new    ;" d="M208.132,431.126c-109.805-60.85-144.862-204.189-76.31-309.361
	c24.333-37.337,56.57-59.034,86.459-71.656c-37.5,6.968-94.783,27.18-132.79,85.493c-68.552,105.173-33.495,248.515,76.314,309.361
	c48.731,27.004,117.966,43.936,216.209,36.144c6.968-3.787,13.725-7.904,20.289-12.295
	C313.691,471.924,252.445,455.683,208.132,431.126z"/>
<g style="opacity:0.3;">
	<circle style="fill:#FFFFFF;" cx="397.071" cy="100.948" r="28.614"/>
	<circle style="fill:#FFFFFF;" cx="431.03" cy="162.451" r="14.309"/>
</g>
</svg>