<?xml version="1.0" encoding="iso-8859-1"?>
<!-- Uploaded to: SVG Repo, www.svgrepo.com, Generator: SVG Repo Mixer Tools -->
<svg height="800px" width="800px" version="1.1" id="Layer_1" xmlns="http://www.w3.org/2000/svg" xmlns:xlink="http://www.w3.org/1999/xlink" 
	 viewBox="0 0 512 512" xml:space="preserve">
<path style="fill:#816952;" d="M256.482,468.039c-58.544,58.544-153.914,58.543-212.456,0c-58.701-58.701-58.701-153.756,0-212.456
	c48.55-48.55,123.617-57.993,182.634-23.213l53.035,53.035C314.554,344.5,305.033,419.489,256.482,468.039z"/>
<path style="fill:#77604B;" d="M44.026,468.039c58.544,58.544,153.914,58.544,212.456,0c48.551-48.55,58.072-123.538,23.214-182.633
	l-26.524-26.523L44.021,468.033C44.021,468.033,44.024,468.036,44.026,468.039z"/>
<path style="fill:#FFA733;" d="M497.322,43.681l-28.959-28.959c-24.156-24.156-64.917-17.547-80.181,12.984l-24.079,48.156
	c-0.865,1.653-1.887,3.148-3.147,4.407L140.552,300.673c-19.593,19.593-21.01,50.438-3.147,70.189c0.63,0.63,1.18,1.338,1.809,1.967
	c19.908,19.908,51.619,19.199,70.819,0l221.742-221.742c1.26-1.26,2.754-2.281,4.407-3.147l48.156-24.079
	c5.037-2.517,9.364-5.743,13.063-9.442C516.207,95.615,517.543,63.902,497.322,43.681z"/>
<path style="fill:#CC7400;" d="M497.401,114.421c-3.698,3.698-8.027,6.924-13.063,9.442l-48.156,24.079
	c-1.652,0.865-3.148,1.887-4.407,3.147L210.033,372.83c-19.199,19.199-50.911,19.908-70.819,0L482.843,29.201l14.479,14.479
	C517.543,63.902,516.207,95.615,497.401,114.421z"/>
<path style="fill:#F8E8CB;" d="M105.142,430.508l-23.606-23.606c-6.519-6.519-6.519-17.087,0-23.606l0,0
	c6.519-6.519,17.087-6.519,23.606,0l23.606,23.606c6.519,6.519,6.519,17.087,0,23.606l0,0
	C122.23,437.027,111.661,437.027,105.142,430.508z"/>
<g>
	<path style="fill:#946346;" d="M388.418,225.92L286.124,123.627c-6.519-6.519-6.519-17.087,0-23.606l0,0
		c6.519-6.519,17.087-6.519,23.606,0l102.294,102.294c6.519,6.519,6.519,17.087,0,23.606l0,0
		C405.505,232.439,394.936,232.439,388.418,225.92z"/>
	<path style="fill:#946346;" d="M439.564,174.773L337.271,72.48c-6.519-6.519-6.519-17.087,0-23.606l0,0
		c6.519-6.519,17.087-6.519,23.606,0l102.294,102.294c6.519,6.519,6.519,17.087,0,23.606l0,0
		C456.652,181.292,446.083,181.292,439.564,174.773z"/>
</g>
<g>
	<path style="fill:#895B41;" d="M412.024,202.314l-51.147-51.147l-23.606,23.606l51.147,51.147c6.518,6.518,17.087,6.519,23.606,0
		S418.542,208.832,412.024,202.314z"/>
	<path style="fill:#895B41;" d="M463.171,151.167l-51.147-51.147l-23.606,23.606l51.147,51.147c6.518,6.518,17.087,6.519,23.606,0
		C469.689,168.255,469.689,157.686,463.171,151.167z"/>
</g>
<path style="fill:#F4D9B1;" d="M128.749,406.902l-11.804-11.804L93.34,418.705l11.804,11.804c6.518,6.518,17.087,6.519,23.606,0
	C135.268,423.989,135.267,413.42,128.749,406.902z"/>
</svg>