<?xml version="1.0" encoding="iso-8859-1"?>
<!-- Uploaded to: SVG Repo, www.svgrepo.com, Generator: SVG Repo Mixer Tools -->
<svg height="800px" width="800px" version="1.1" id="Layer_1" xmlns="http://www.w3.org/2000/svg" xmlns:xlink="http://www.w3.org/1999/xlink" 
	 viewBox="0 0 512 512" xml:space="preserve">
<path style="fill:#957856;" d="M241.065,90.944l-33.391-66.783c-4.119-8.25-0.777-18.277,7.467-22.402
	c8.244-4.108,18.266-0.777,22.402,7.467l18.457,36.919l18.457-36.919c4.136-8.239,14.179-11.571,22.402-7.467
	c8.244,4.125,11.587,14.152,7.467,22.402l-33.391,66.783C264.784,103.235,247.21,103.222,241.065,90.944z"/>
<path style="fill:#816952;" d="M270.934,90.944l33.391-66.783c4.119-8.25,0.777-18.277-7.467-22.402
	c-8.223-4.104-18.266-0.771-22.402,7.467l-18.457,36.919v54.012C261.929,100.158,267.858,97.089,270.934,90.944z"/>
<path style="fill:#FFE477;" d="M504.21,487.068l-23.709-41.851l-19.033-33.391L270.47,75.24c-2.894-5.231-8.459-8.459-14.47-8.459
	c-6.01,0-11.576,3.228-14.47,8.459L50.532,411.826l-19.033,33.391L7.79,487.068c-3.005,5.12-2.894,11.464,0,16.584
	c3.005,5.231,8.57,8.348,14.47,8.348h467.48c5.899,0,11.464-3.117,14.47-8.348C507.104,498.532,507.216,492.188,504.21,487.068z"/>
<path style="fill:#FFB655;" d="M504.21,503.652c-3.005,5.231-8.57,8.348-14.47,8.348h-233.74V66.781
	c6.01,0,11.576,3.228,14.47,8.459l190.998,336.586l19.033,33.391l23.709,41.851C507.216,492.188,507.104,498.532,504.21,503.652z"/>
<path style="fill:#F5DC48;" d="M504.21,503.652c-3.005,5.231-8.57,8.348-14.47,8.348H22.26c-5.899,0-11.464-3.117-14.47-8.348
	c-2.894-5.12-3.005-11.464,0-16.584L31.5,445.217l19.033-33.391h410.936l19.033,33.391l23.709,41.851
	C507.216,492.188,507.104,498.532,504.21,503.652z"/>
<path style="fill:#FFA733;" d="M504.21,503.652c-3.005,5.231-8.57,8.348-14.47,8.348H22.26c-5.899,0-11.464-3.117-14.47-8.348
	c-2.894-5.12-3.005-11.464,0-16.584L31.5,445.217l19.033-33.391h410.936l19.033,33.391l23.709,41.851
	C507.216,492.188,507.104,498.532,504.21,503.652z"/>
<path style="fill:#CC7400;" d="M480.5,445.217l-19.033-33.391H255.998V512h233.74c5.899,0,11.464-3.117,14.47-8.348
	c2.894-5.12,3.005-11.464,0-16.584L480.5,445.217z"/>
<polygon style="fill:#696B6F;" points="255.999,311.651 172.521,512 339.478,512 "/>
<path style="fill:#A78966;" d="M172.521,512l-54.625-178.775c-3.279-10.73,4.747-21.574,15.967-21.574h122.137L172.521,512z"/>
<polygon style="fill:#616267;" points="339.478,512 255.999,311.651 255.999,512 "/>
</svg>