<?xml version="1.0" encoding="iso-8859-1"?>
<!-- Uploaded to: SVG Repo, www.svgrepo.com, Generator: SVG Repo Mixer Tools -->
<svg height="800px" width="800px" version="1.1" id="Capa_1" xmlns="http://www.w3.org/2000/svg" xmlns:xlink="http://www.w3.org/1999/xlink" 
	 viewBox="0 0 470 470" xml:space="preserve">
<g>
	<path style="fill:#D7B0CD;" d="M387.5,328.026c-5.902,0-11.79,0.775-17.501,2.304c-3.871,1.04-7.844-1.161-9.065-4.934
		c-0.044,0.017-0.088,0.033-0.131,0.05c-0.407,0.155-0.818,0.303-1.221,0.465c-0.562,0.226-1.116,0.47-1.671,0.709
		c-0.391,0.168-0.786,0.33-1.174,0.505c-0.559,0.252-1.109,0.521-1.66,0.787c-0.373,0.18-0.75,0.352-1.12,0.538
		c-0.552,0.277-1.094,0.57-1.638,0.86c-0.361,0.192-0.725,0.378-1.082,0.576c-0.542,0.3-1.074,0.616-1.608,0.93
		c-0.347,0.204-0.698,0.402-1.042,0.611c-0.415,0.253-0.821,0.52-1.231,0.78C357.944,350.923,364,372.53,364,395.526h91
		C455,358.307,424.72,328.026,387.5,328.026z"/>
	<path style="fill:#98AE9F;" d="M109.066,325.396c-1.221,3.772-5.189,5.968-9.065,4.934c-5.711-1.529-11.6-2.304-17.501-2.304
		c-37.22,0-67.5,30.28-67.5,67.5h91c0-22.997,6.056-44.603,16.646-63.32C118.39,329.5,113.846,327.212,109.066,325.396z"/>
	<path style="fill:#9B7064;" d="M320.777,299.266c10.559,9.419,19.563,20.543,26.576,32.938c0.41-0.261,0.817-0.525,1.233-0.778
		c0.344-0.209,0.695-0.407,1.042-0.611c0.534-0.313,1.066-0.629,1.608-0.93c0.357-0.198,0.722-0.384,1.082-0.576
		c0.544-0.29,1.086-0.583,1.638-0.86c0.37-0.186,0.747-0.358,1.12-0.538c0.552-0.265,1.101-0.535,1.66-0.787
		c0.388-0.175,0.783-0.336,1.174-0.505c0.556-0.239,1.109-0.483,1.671-0.709c0.403-0.162,0.814-0.31,1.221-0.465
		c0.044-0.017,0.087-0.033,0.131-0.05c-0.04-0.124-0.086-0.244-0.12-0.371c-1.071-4.001,1.305-8.113,5.306-9.184
		c6.975-1.868,14.168-2.814,21.38-2.814c20.973,0,40.131,7.88,54.703,20.817c2.304-1.192,4.468-2.614,6.462-4.239
		c-2.686-2.697-2.942-7.044-0.475-10.048c4.392-5.343,6.81-12.102,6.81-19.03c0-8.517-3.646-16.665-10.003-22.356
		c-1.589-1.423-2.497-3.455-2.497-5.588v-19.556c0-30.327-24.673-55-55-55s-55,24.673-55,55v19.556c0,4.142-3.357,7.5-7.5,7.5
		c-1.95,0-3.721-0.751-5.055-1.971c-3.249,4.347-5.57,9.423-6.688,14.938c2.215,1.696,4.377,3.458,6.476,5.291
		C320.104,298.611,320.452,298.921,320.777,299.266z M343.938,241.775c0.855-3.311,3.842-5.624,7.262-5.624h72.6
		c3.42,0,6.406,2.313,7.262,5.624c0.954,3.695,1.438,7.48,1.438,11.251c0,24.813-20.187,45-45,45s-45-20.187-45-45
		C342.5,249.255,342.984,245.47,343.938,241.775z"/>
	<path style="fill:#3E2C3A;" d="M442.203,333.844c-14.572-12.938-33.73-20.817-54.703-20.817c-7.212,0-14.405,0.947-21.38,2.814
		c-4.001,1.071-6.377,5.183-5.306,9.184c0.034,0.127,0.08,0.247,0.12,0.371c1.221,3.773,5.194,5.974,9.065,4.935
		c5.711-1.528,11.599-2.304,17.501-2.304c37.22,0,67.5,30.28,67.5,67.5c0,4.142,3.357,7.5,7.5,7.5s7.5-3.358,7.5-7.5
		C470,371.009,459.238,348.968,442.203,333.844z"/>
	<path style="fill:#3E2C3A;" d="M332.5,272.583v-19.556c0-30.327,24.673-55,55-55s55,24.673,55,55v19.556
		c0,2.133,0.908,4.165,2.497,5.588C451.354,283.861,455,292.01,455,300.526c0,6.929-2.418,13.687-6.81,19.03
		c-2.467,3.003-2.212,7.351,0.475,10.048c0.176,0.177,0.362,0.347,0.558,0.508c1.396,1.147,3.082,1.706,4.758,1.706
		c2.166,0,4.315-0.934,5.799-2.738c6.59-8.02,10.22-18.161,10.22-28.554c0-11.616-4.518-22.772-12.5-31.116v-16.384
		c0-38.598-31.402-70-70-70s-70,31.402-70,70v19.556c0,2.192,0.946,4.158,2.445,5.529c1.334,1.22,3.104,1.971,5.055,1.971
		C329.143,280.083,332.5,276.725,332.5,272.583z"/>
	<path style="fill:#E8B9AC;" d="M387.5,283.026c16.542,0,30-13.458,30-30c0-0.625-0.021-1.25-0.061-1.875h-59.879
		c-0.04,0.625-0.061,1.25-0.061,1.875C357.5,269.568,370.958,283.026,387.5,283.026z"/>
	<path style="fill:#3E2C3A;" d="M387.5,298.026c24.813,0,45-20.187,45-45c0-3.771-0.484-7.557-1.438-11.251
		c-0.855-3.311-3.842-5.624-7.262-5.624h-72.6c-3.42,0-6.406,2.313-7.262,5.624c-0.954,3.695-1.438,7.48-1.438,11.251
		C342.5,277.839,362.687,298.026,387.5,298.026z M357.561,251.151h59.879c0.04,0.625,0.061,1.25,0.061,1.875
		c0,16.542-13.458,30-30,30s-30-13.458-30-30C357.5,252.402,357.521,251.777,357.561,251.151z"/>
	<path style="fill:#C981A6;" d="M82.5,313.026c7.211,0,14.404,0.947,21.38,2.814c4.001,1.071,6.376,5.183,5.306,9.185
		c-0.034,0.126-0.079,0.245-0.119,0.367c4.78,1.814,9.325,4.102,13.581,6.809c6.059-10.707,13.603-20.464,22.351-28.995v-21.971
		c-4.142,0-7.5-3.358-7.5-7.5v-20.708c0-30.327-24.673-55-55-55s-55,24.673-55,55v58.181c0,4.142-3.358,7.5-7.5,7.5v23.059
		C35.141,324.188,57.535,313.026,82.5,313.026z M60.368,213.85c2.173-1.231,4.816-1.298,7.049-0.181
		c2.233,1.117,3.764,3.271,4.084,5.748c1.922,14.885,14.711,26.11,29.75,26.11c5.169,0,10.266-1.336,14.738-3.865
		c2.175-1.229,4.816-1.294,7.048-0.178c2.232,1.118,3.763,3.272,4.082,5.749c0.254,1.969,0.382,3.918,0.382,5.794
		c0,24.813-20.187,45-45,45s-45-20.187-45-45C37.5,236.845,46.262,221.833,60.368,213.85z"/>
	<path style="fill:#F6E3DE;" d="M82.5,283.026c14.405,0,26.471-10.205,29.349-23.765c-3.457,0.836-7.017,1.265-10.599,1.265
		c-18.304,0-34.388-11.095-41.343-27.216c-4.698,5.391-7.407,12.373-7.407,19.716C52.5,269.568,65.958,283.026,82.5,283.026z"/>
	<path style="fill:#3E2C3A;" d="M82.5,298.026c24.813,0,45-20.187,45-45c0-1.876-0.128-3.826-0.382-5.794
		c-0.319-2.477-1.849-4.631-4.082-5.749c-2.232-1.116-4.874-1.051-7.048,0.178c-4.472,2.529-9.568,3.865-14.738,3.865
		c-15.038,0-27.828-11.225-29.75-26.11c-0.32-2.476-1.851-4.631-4.084-5.748c-2.233-1.117-4.875-1.05-7.049,0.181
		C46.262,221.833,37.5,236.845,37.5,253.026C37.5,277.839,57.687,298.026,82.5,298.026z M59.907,233.311
		c6.956,16.121,23.04,27.216,41.343,27.216c3.582,0,7.142-0.429,10.599-1.265c-2.878,13.56-14.944,23.765-29.349,23.765
		c-16.542,0-30-13.458-30-30C52.5,245.684,55.208,238.701,59.907,233.311z"/>
	<path style="fill:#3E2C3A;" d="M27.5,311.207v-58.181c0-30.327,24.673-55,55-55s55,24.673,55,55v20.708c0,4.142,3.358,7.5,7.5,7.5
		s7.5-3.358,7.5-7.5v-20.708c0-38.598-31.402-70-70-70s-70,31.402-70,70v58.181c0,4.142,3.358,7.5,7.5,7.5
		S27.5,315.349,27.5,311.207z"/>
	<path style="fill:#3E2C3A;" d="M82.5,328.026c5.902,0,11.79,0.775,17.501,2.304c3.875,1.034,7.844-1.163,9.065-4.934
		c0.041-0.126,0.086-0.246,0.12-0.371c1.071-4.001-1.305-8.113-5.306-9.185c-6.976-1.867-14.169-2.814-21.38-2.814
		c-24.965,0-47.359,11.162-62.5,28.74c-12.448,14.452-20,33.235-20,53.76c0,4.142,3.358,7.5,7.5,7.5s7.5-3.358,7.5-7.5
		C15,358.307,45.28,328.026,82.5,328.026z"/>
	<path style="fill:#523B4D;" d="M161.919,181.075c2.934,1.928,4.138,5.634,2.897,8.918c-2.692,7.128-1.633,15.053,2.833,21.2
		c3.533,4.862,8.748,8.058,14.684,8.998c4.678,0.74,9.354-0.01,13.51-2.082c-17.575-12.36-29.092-32.778-29.092-55.849
		c0-24.542,13.291-47.311,34.686-59.42c2.173-1.23,4.816-1.297,7.048-0.181c2.233,1.117,3.765,3.271,4.084,5.748
		c3.413,26.426,26.115,46.354,52.807,46.354c9.175,0,18.223-2.374,26.164-6.864c2.175-1.229,4.817-1.294,7.049-0.178
		c2.232,1.118,3.763,3.273,4.081,5.75c0.386,2.997,0.581,5.955,0.581,8.792c0,23.07-11.517,43.489-29.092,55.849
		c4.154,2.072,8.828,2.824,13.51,2.082c5.936-0.94,11.15-4.136,14.683-8.998c4.466-6.147,5.525-14.072,2.833-21.2
		c-1.24-3.284-0.036-6.989,2.897-8.917c6.367-4.185,10.169-11.218,10.169-18.816s-3.802-14.632-10.169-18.816
		c-2.934-1.928-4.138-5.633-2.897-8.917c2.692-7.128,1.633-15.053-2.833-21.2s-11.681-9.593-19.287-9.246
		c-3.521,0.168-6.658-2.126-7.585-5.511c-2.013-7.349-7.527-13.138-14.753-15.486c-7.229-2.349-15.091-0.906-21.037,3.857
		c-2.74,2.194-6.636,2.195-9.377,0c-5.948-4.763-13.812-6.206-21.037-3.857c-7.226,2.348-12.741,8.137-14.752,15.485
		c-0.927,3.386-4.062,5.686-7.586,5.512c-7.613-0.358-14.821,3.099-19.287,9.245c-4.465,6.147-5.524,14.072-2.833,21.2
		c1.241,3.284,0.037,6.99-2.897,8.918c-6.368,4.184-10.169,11.218-10.169,18.816S155.551,176.891,161.919,181.075z"/>
	<path style="fill:#9B7064;" d="M288.13,165.86c-7.275,2.568-14.98,3.899-22.755,3.899c-30.174,0-56.371-19.879-65.135-47.818
		c-11.595,10.017-18.49,24.709-18.49,40.318c0,29.362,23.888,53.25,53.25,53.25C263.152,215.509,286.272,193.55,288.13,165.86z"/>
	<path style="fill:#3E2C3A;" d="M149.18,190.144c-2.215,10.335,0.014,21.166,6.334,29.865c12.153,16.729,35.652,20.451,52.379,8.296
		c0.978-0.711,1.909-1.481,2.813-2.28c7.553,2.887,15.738,4.484,24.294,4.484s16.741-1.597,24.294-4.484
		c0.904,0.8,1.835,1.57,2.813,2.28c6.477,4.706,14.107,7.171,21.962,7.171c1.973,0,3.96-0.156,5.945-0.47
		c9.894-1.567,18.585-6.893,24.472-14.996c6.32-8.699,8.55-19.53,6.336-29.865c7.866-7.06,12.429-17.132,12.429-27.885
		s-4.562-20.825-12.429-27.885c2.214-10.335-0.015-21.166-6.336-29.865c-6.319-8.699-15.932-14.166-26.445-15.253
		c-4.284-9.664-12.453-17.115-22.679-20.438c-10.226-3.323-21.216-2.096-30.361,3.204c-9.146-5.301-20.135-6.527-30.361-3.204
		c-10.227,3.323-18.396,10.775-22.679,20.438c-10.513,1.088-20.126,6.555-26.446,15.253c-6.321,8.699-8.549,19.529-6.334,29.865
		c-7.867,7.06-12.43,17.132-12.43,27.885C136.75,173.012,141.312,183.084,149.18,190.144z M161.919,143.443
		c2.934-1.928,4.138-5.634,2.897-8.918c-2.692-7.128-1.633-15.053,2.833-21.2c4.466-6.146,11.674-9.603,19.287-9.245
		c3.523,0.174,6.659-2.126,7.586-5.512c2.012-7.348,7.526-13.137,14.752-15.485c7.225-2.349,15.089-0.906,21.037,3.857
		c2.741,2.195,6.637,2.194,9.377,0c5.946-4.763,13.809-6.206,21.037-3.857c7.226,2.348,12.74,8.137,14.753,15.486
		c0.927,3.385,4.064,5.68,7.585,5.511c7.606-0.347,14.821,3.099,19.287,9.246s5.525,14.071,2.833,21.2
		c-1.24,3.284-0.036,6.989,2.897,8.917c6.367,4.185,10.169,11.219,10.169,18.816s-3.802,14.631-10.169,18.816
		c-2.934,1.928-4.138,5.633-2.897,8.917c2.692,7.128,1.633,15.053-2.833,21.2c-3.532,4.862-8.747,8.058-14.683,8.998
		c-4.682,0.742-9.356-0.01-13.51-2.082c17.575-12.36,29.092-32.778,29.092-55.849c0-2.836-0.195-5.794-0.581-8.792
		c-0.318-2.477-1.849-4.632-4.081-5.75c-2.231-1.117-4.874-1.051-7.049,0.178c-7.941,4.49-16.989,6.864-26.164,6.864
		c-26.692,0-49.394-19.928-52.807-46.354c-0.319-2.477-1.851-4.631-4.084-5.748c-2.232-1.116-4.875-1.049-7.048,0.181
		c-21.395,12.109-34.686,34.877-34.686,59.42c0,23.07,11.517,43.489,29.092,55.849c-4.155,2.072-8.831,2.822-13.51,2.082
		c-5.936-0.94-11.151-4.136-14.684-8.998c-4.465-6.147-5.524-14.072-2.833-21.2c1.241-3.284,0.037-6.99-2.897-8.918
		c-6.368-4.184-10.169-11.218-10.169-18.815S155.551,147.628,161.919,143.443z M181.75,162.259c0-15.609,6.895-30.301,18.49-40.318
		c8.764,27.939,34.961,47.818,65.135,47.818c7.774,0,15.479-1.332,22.755-3.899c-1.857,27.69-24.978,49.649-53.13,49.649
		C205.638,215.509,181.75,191.622,181.75,162.259z"/>
	<path style="fill:#BC6190;" d="M315.021,314.416c-22.738,18.009-50.891,27.861-80.021,27.861c-29.131,0-57.284-9.852-80.021-27.861
		C134.016,335.1,121,363.82,121,395.526h228C349,363.82,335.984,335.1,315.021,314.416z"/>
	<path style="fill:#9B7064;" d="M303.436,304.412c-19.072-14.361-42.777-22.885-68.436-22.885c-25.659,0-49.363,8.524-68.435,22.885
		c19.68,14.798,43.658,22.865,68.435,22.865C259.777,327.276,283.754,319.209,303.436,304.412z"/>
	<path style="fill:#3E2C3A;" d="M347.353,332.204c-7.013-12.395-16.018-23.519-26.576-32.938c-0.325-0.345-0.673-0.656-1.043-0.926
		c-2.099-1.833-4.261-3.595-6.476-5.291c-21.721-16.627-48.853-26.523-78.258-26.523c-32.404,0-62.053,12.013-84.735,31.815
		c-0.37,0.27-0.717,0.58-1.041,0.924c-1.437,1.282-2.845,2.596-4.224,3.94c-8.749,8.531-16.293,18.288-22.351,28.995
		C112.056,350.923,106,372.53,106,395.526c0,4.142,3.358,7.5,7.5,7.5s7.5-3.358,7.5-7.5c0-31.706,13.016-60.426,33.979-81.111
		c22.737,18.009,50.891,27.861,80.021,27.861c29.13,0,57.283-9.852,80.021-27.861C335.984,335.1,349,363.82,349,395.526
		c0,4.142,3.357,7.5,7.5,7.5s7.5-3.358,7.5-7.5C364,372.53,357.944,350.923,347.353,332.204z M235,281.526
		c25.659,0,49.363,8.524,68.436,22.885c-19.681,14.798-43.659,22.865-68.436,22.865c-24.777,0-48.755-8.067-68.435-22.865
		C185.637,290.05,209.341,281.526,235,281.526z"/>
</g>
</svg>