<?xml version="1.0" encoding="utf-8"?>
<!-- Uploaded to: SVG Repo, www.svgrepo.com, Generator: SVG Repo Mixer Tools -->
<svg width="800px" height="800px" viewBox="90 90 830 820" class="icon"  version="1.1" xmlns="http://www.w3.org/2000/svg"><path d="M640.3 428.7c-0.1 0.4-20.2 46.6-125.7 60.4l-1.5-35.4 0.1-24.1c0-0.5-4.9-49 17.1-75.5 8.5-10.1 20-15.8 34.4-16.9 2.3-0.1 4.8-0.2 7.2-0.2 26.6 0 50 11.2 63.4 30.6 12.5 18.3 14.5 40.9 5 61.1zM514.6 506.3c105.5 13.8 125.6 60.1 125.7 60.4 9.5 20.2 7.5 42.8-4.9 61.1-13.4 19.4-36.8 30.6-63.4 30.6-2.3 0-4.8-0.1-7.2-0.2-14.4-1.1-25.9-6.8-34.4-16.9-22.1-26.5-17.1-75-17.1-75.5l-0.1-24.1 1.4-35.4z" fill="#FF6EA9" /><path d="M507.1 375.5c-3-10.1-7.5-20.1-14.6-28.4-10.5-12.7-24.7-19.7-42.2-21-33.7-2.6-63.9 10.6-80.8 35.2-14.8 21.6-17 48.5-6.2 71.8 1 2 21.6 47.5 119.9 64.8-98.3 17.1-118.9 62.7-119.9 64.6-10.9 23.3-8.6 50.2 6.2 71.8 16.9 24.5 47.1 37.7 80.8 35.2 17.5-1.2 31.7-8.3 42.2-21 7-8.3 11.6-18.3 14.6-28.4 3.1 10.1 7.6 20.1 14.6 28.4 10.5 12.7 24.8 19.7 42.3 21 33.7 2.6 63.9-10.6 80.8-35.2 14.8-21.6 17-48.5 5.9-71.9-0.6-1.7-19.6-47.2-117.7-64.5 98.1-17.4 117-62.9 117.7-64.6 11.1-23.4 8.9-50.3-5.9-71.9-16.9-24.5-47.1-37.7-80.8-35.2-17.5 1.2-31.8 8.3-42.3 21-7 8.1-11.5 18.1-14.6 28.3z m388 60.6c3.3 20.5 5.1 41.6 5.1 62.9 0 17.1-1.2 33.9-3.3 50.3H726.5v12.3h168.7c-26.1 164.2-153.3 294.9-315.5 326.7V724.1h-12.3v166.4c-20.8 3.5-42.2 5.3-64 5.3-21.7 0-43-1.9-63.9-5.3V724.1h-12.3v164.3C265 856.6 137.8 725.9 111.6 561.7h168.7v-12.3H110c-2.1-16.4-3.3-33.2-3.3-50.3 0-21.3 1.7-42.4 5.1-62.9h165.4v-12.3H114c30.5-158.1 155.2-283.1 313.2-314v168.4h12.3V107.6c20.8-3.5 42.2-5.2 63.9-5.2 21.8 0 43.2 1.7 64 5.2v167.2h12.3v-165c158 31 282.7 155.9 313.2 314H726.5v12.3h168.6z" fill="#97BC48" /><path d="M500.9 430.6l0.9 23.1-0.2 35.4C396 475.4 374.2 429 373.8 428.4c-9.3-19.9-7.4-42.4 5.2-60.7 13.3-19.4 36.6-30.6 63.4-30.6 2.3 0 4.7 0.1 7.2 0.2 14.3 1.1 25.9 6.8 34.3 16.9 22.1 26.6 17 75 17 76.4zM501.5 506.4l0.2 35.4-0.9 23.1c0 1.4 5.1 49.8-17.1 76.3-8.4 10.1-20 15.8-34.3 16.9-2.5 0.1-4.8 0.2-7.2 0.2-26.8 0-50.1-11.2-63.4-30.6-12.6-18.3-14.4-40.8-5.2-60.7 0.5-0.5 22.3-46.9 127.9-60.6z" fill="#FF6EA9" /><path d="M501.5 506.4c-105.6 13.7-127.4 60.1-127.8 60.7-9.3 19.9-7.4 42.4 5.2 60.7 13.3 19.4 36.6 30.6 63.4 30.6 2.3 0 4.7-0.1 7.2-0.2 14.3-1.1 25.9-6.8 34.3-16.9 22.2-26.5 17.1-75 17.1-76.3l0.9-23.1-0.3-35.5z m138.8-77.7c9.5-20.2 7.5-42.8-4.9-61.1C622 348.2 598.6 337 572 337c-2.3 0-4.8 0.1-7.2 0.2-14.4 1.1-25.9 6.8-34.4 16.9-22.1 26.5-17.1 75-17.1 75.5l-0.1 24.1 1.5 35.4c105.3-13.7 125.4-60 125.6-60.4z m-190 240.7c-33.7 2.6-63.9-10.6-80.8-35.2-14.8-21.6-17-48.5-6.2-71.8 1-2 21.6-47.5 119.9-64.6C385 480.5 364.4 435 363.4 433c-10.9-23.3-8.6-50.2 6.2-71.8 16.9-24.5 47.1-37.7 80.8-35.2 17.5 1.2 31.7 8.3 42.2 21 7 8.3 11.6 18.3 14.6 28.4 3.1-10.1 7.6-20.1 14.6-28.4 10.5-12.7 24.8-19.7 42.3-21 33.7-2.6 63.9 10.6 80.8 35.2 14.8 21.6 17 48.5 5.9 71.9-0.6 1.7-19.6 47.2-117.7 64.6 98.1 17.3 117 62.8 117.7 64.5 11.1 23.4 8.9 50.3-5.9 71.9-16.9 24.5-47.1 37.7-80.8 35.2-17.5-1.2-31.8-8.3-42.3-21-6.9-8.3-11.5-18.3-14.6-28.4-3 10.1-7.5 20.1-14.6 28.4-10.6 12.8-24.8 19.8-42.3 21.1z m62.9-103.6c0 0.5-4.9 49 17.1 75.5 8.5 10.1 20 15.8 34.4 16.9 2.3 0.1 4.8 0.2 7.2 0.2 26.6 0 50-11.2 63.4-30.6 12.5-18.3 14.4-40.8 4.9-61.1-0.1-0.4-20.2-46.6-125.7-60.4l-1.5 35.4 0.2 24.1zM378.9 367.7c-12.6 18.3-14.4 40.8-5.2 60.7 0.4 0.6 22.2 47 127.8 60.7l0.2-35.4-0.9-23.1c0-1.4 5.1-49.8-17.1-76.3-8.4-10.1-20-15.8-34.3-16.9-2.5-0.1-4.8-0.2-7.2-0.2-26.6-0.1-50 11.1-63.3 30.5z" fill="#D1186C" /><path d="M427.1 109.8c-158 31-282.7 155.9-313.2 314h163.2v12.3H111.8c-3.3 20.5-5.1 41.6-5.1 62.9 0 17.1 1.2 33.9 3.3 50.3h170.3v12.3H111.6c26.2 164.3 153.4 295 315.5 326.8V724.1h12.3v166.4c20.8 3.5 42.2 5.3 63.9 5.3 21.8 0 43.2-1.9 64-5.3V724.1h12.3v164.3c162.2-31.8 289.3-162.6 315.5-326.7H726.5v-12.3h170.3c2.1-16.4 3.3-33.2 3.3-50.3 0-21.3-1.7-42.4-5.1-62.9H726.5v-12.3h166.4c-30.5-158.1-155.2-283.1-313.2-314v165h-12.3V107.6c-20.8-3.5-42.2-5.2-64-5.2-21.7 0-43 1.7-63.9 5.2v170.6h-12.3V109.8zM94.4 499c0-225.6 183.5-409 409-409C729 90 912.5 273.4 912.5 499S728.9 908.1 503.4 908.1c-23.9 0-47.4-2.2-70.2-6.2h-6v-1.1C237.9 865 94.4 698.5 94.4 499z" fill="#D1FF52" /></svg>