<?xml version="1.0" ?><!DOCTYPE svg  PUBLIC '-//W3C//DTD SVG 1.1//EN'  'http://www.w3.org/Graphics/SVG/1.1/DTD/svg11.dtd'><!-- Uploaded to: SVG Repo, www.svgrepo.com, Generator: SVG Repo Mixer Tools -->
<svg width="800px" height="800px" viewBox="0 0 512 512" enable-background="new 0 0 512 512" id="Grandfather" version="1.1" xml:space="preserve" xmlns="http://www.w3.org/2000/svg" xmlns:xlink="http://www.w3.org/1999/xlink"><circle cx="379.609" cy="154.796" fill="#B2AF79" r="44.716"/><circle cx="124.618" cy="154.796" fill="#B2AF79" r="44.716"/><path d="M364.995,429.325c0,62.344-225.763,62.344-225.763,0c0-62.342,50.539-112.881,112.882-112.881  C314.456,316.444,364.995,366.983,364.995,429.325z" fill="#E89C21"/><path d="M252.114,316.444c-55.723,0-102.009,40.376-111.213,93.467c19.419,50.416,203.006,50.416,222.425,0  C354.122,356.82,307.836,316.444,252.114,316.444z" fill="#FFC866"/><circle cx="117.024" cy="213.146" fill="#FFF2DC" r="36.537"/><circle cx="252.114" cy="332.571" fill="#FFBF94" r="44.717"/><path d="M252.114,287.854c-19.941,0-36.827,13.057-42.593,31.084c5.766,18.027,22.651,31.083,42.593,31.083  c19.94,0,36.826-13.056,42.592-31.083C288.94,300.911,272.055,287.854,252.114,287.854z" fill="#ED9572"/><circle cx="395.562" cy="213.146" fill="#FFF2DC" r="36.537"/><path d="M245.154,382.208h-41.343c-3.976,0-7.198-3.223-7.198-7.197v-41.344c0-6.412,7.753-9.623,12.287-5.09  l41.344,41.344C254.778,374.455,251.566,382.208,245.154,382.208z" fill="#E89C21"/><path d="M203.812,372.208h41.343c2.141,0,3.912-0.875,5.17-2.194c-0.029-0.03-0.051-0.063-0.08-0.093L208.9,328.577  c-4.534-4.533-12.287-1.322-12.287,5.09v31.344C196.613,368.985,199.836,372.208,203.812,372.208z" fill="#FFFFFF"/><path d="M259.073,382.208h41.344c3.975,0,7.197-3.223,7.197-7.197v-41.344c0-6.412-7.753-9.623-12.287-5.09  l-41.344,41.344C249.449,374.455,252.661,382.208,259.073,382.208z" fill="#E89C21"/><path d="M300.417,372.208h-41.344c-2.141,0-3.912-0.875-5.17-2.194c0.029-0.03,0.051-0.063,0.08-0.093l41.344-41.344  c4.534-4.533,12.287-1.322,12.287,5.09v31.344C307.614,368.985,304.392,372.208,300.417,372.208z" fill="#FFFFFF"/><circle cx="117.024" cy="213.146" fill="#FFBF94" r="36.537"/><path d="M117.023,235.504c-17.752,0-32.542-12.663-35.843-29.448c-0.451,2.294-0.693,4.663-0.693,7.089  c0,20.178,16.358,36.537,36.536,36.537c20.179,0,36.537-16.358,36.537-36.537c0-2.426-0.242-4.795-0.693-7.089  C149.565,222.842,134.776,235.504,117.023,235.504z" fill="#ED9572"/><circle cx="395.562" cy="213.146" fill="#FFBF94" r="36.537"/><path d="M395.562,235.504c-17.752,0-32.541-12.663-35.843-29.448c-0.451,2.294-0.693,4.663-0.693,7.089  c0,20.178,16.358,36.537,36.536,36.537c20.18,0,36.537-16.358,36.537-36.537c0-2.426-0.242-4.795-0.693-7.089  C428.104,222.842,413.314,235.504,395.562,235.504z" fill="#ED9572"/><path d="M380.11,158.614c-2.857-68.226-55.772-122.666-127.966-122.696l-0.001-0.001c-0.01,0-0.02,0-0.029,0  c-0.011,0-0.021,0-0.031,0v0.001c-72.193,0.03-125.108,54.47-127.966,122.696h-0.124v78.526h0.124  c2.857,68.224,60.131,100.865,127.966,100.884l0,0c0.011,0,0.021,0,0.031,0c0.01,0,0.02,0,0.029,0h0.001  c67.835-0.02,125.108-32.66,127.966-100.884h0.124v-78.526H380.11z" fill="#FFBF94"/><circle cx="170.315" cy="247.501" fill="#F97A7A" r="30.538"/><circle cx="333.912" cy="247.501" fill="#F97A7A" r="30.538"/><circle cx="204.549" cy="194.06" fill="#493E2F" r="17.45"/><circle cx="299.648" cy="194.06" fill="#493E2F" r="17.45"/><path d="M252.659,271.38c-9.077,0-18.155-3.455-25.065-10.365c-2.343-2.344-2.343-6.143,0-8.486  c2.343-2.343,6.143-2.343,8.485,0c9.144,9.144,24.019,9.142,33.16,0c2.343-2.343,6.143-2.343,8.484,0  c2.344,2.343,2.344,6.142,0,8.486C270.813,267.925,261.736,271.38,252.659,271.38z" fill="#F97A7A"/></svg>