<?xml version="1.0" ?><!DOCTYPE svg  PUBLIC '-//W3C//DTD SVG 1.1//EN'  'http://www.w3.org/Graphics/SVG/1.1/DTD/svg11.dtd'><!-- Uploaded to: SVG Repo, www.svgrepo.com, Generator: SVG Repo Mixer Tools -->
<svg width="800px" height="800px" viewBox="0 0 512 512" enable-background="new 0 0 512 512" id="Mother" version="1.1" xml:space="preserve" xmlns="http://www.w3.org/2000/svg" xmlns:xlink="http://www.w3.org/1999/xlink"><circle cx="256" cy="57.041" fill="#493E2F" r="42"/><ellipse cx="256" cy="195.041" fill="#5B412C" rx="162.5" ry="158.77"/><path d="M367.704,450.689c0,61.693-223.408,61.693-223.408,0c0-61.692,50.012-111.704,111.704-111.704  S367.704,388.997,367.704,450.689z" fill="#0A717F"/><path d="M256,338.985c-55.141,0-100.944,39.955-110.053,92.491c19.216,49.892,200.889,49.892,220.104,0  C356.944,378.94,311.141,338.985,256,338.985z" fill="#19929B"/><circle cx="256" cy="354.944" fill="#FFBF94" r="44.25"/><path d="M256,310.694c-19.733,0-36.442,12.919-42.148,30.759c5.706,17.84,22.416,30.76,42.148,30.76  c19.733,0,36.442-12.92,42.147-30.76C292.442,323.613,275.733,310.694,256,310.694z" fill="#ED9572"/><circle cx="118.183" cy="236.765" fill="#FFBF94" r="36.156"/><path d="M118.184,258.89c-17.567,0-32.203-12.531-35.47-29.141c-0.446,2.27-0.686,4.614-0.686,7.016  c0,19.968,16.188,36.155,36.156,36.155c19.968,0,36.155-16.188,36.155-36.155c0-2.401-0.24-4.746-0.686-7.016  C150.386,246.359,135.75,258.89,118.184,258.89z" fill="#ED9572"/><circle cx="393.816" cy="236.765" fill="#FFBF94" r="36.155"/><path d="M393.816,258.89c-17.567,0-32.202-12.531-35.47-29.141c-0.445,2.27-0.686,4.614-0.686,7.016  c0,19.968,16.188,36.155,36.155,36.155s36.155-16.188,36.155-36.155c0-2.401-0.239-4.746-0.686-7.016  C426.019,246.359,411.384,258.89,393.816,258.89z" fill="#ED9572"/><path d="M382.661,182.801c-2.827-67.514-55.19-121.386-126.631-121.417v-0.001c-0.01,0-0.021,0-0.03,0  c-0.011,0-0.021,0-0.03,0v0.001c-71.44,0.03-123.804,53.903-126.632,121.417h-0.122v77.707h0.122  c2.828,67.514,59.504,99.813,126.632,99.832v0.001c0.01,0,0.02-0.001,0.03-0.001c0.01,0,0.021,0.001,0.03,0.001v-0.001  c67.128-0.02,123.805-32.318,126.631-99.832h0.123v-77.707H382.661z" fill="#FFBF94"/><path d="M390,201.041c0-166-134-141-134-141s-134-25-134,141l10.584,24v-10.872c0-7.503,3.325-14.622,9.079-19.438  L256,99.041l114.337,95.69c5.754,4.816,9.078,11.934,9.078,19.438v10.872L390,201.041z" fill="#7C4E2E"/><path d="M168.96,380.475c-0.01,0.014-0.02,0.025-0.03,0.038c-1.545,1.917-3.029,3.886-4.447,5.904  c-0.002,0.003-0.004,0.005-0.005,0.008c-4.981,7.089-9.159,14.782-12.401,22.95c-0.001,0.003-0.002,0.006-0.003,0.009  c-0.92,2.317-1.764,4.673-2.529,7.063c-0.013,0.038-0.024,0.076-0.037,0.115c-0.753,2.36-1.43,4.754-2.028,7.179  c-0.015,0.062-0.029,0.122-0.044,0.183c-0.59,2.412-1.102,4.854-1.532,7.324c-0.006,0.033-0.013,0.065-0.019,0.099  c0,0.001,0.001,0.001,0.001,0.003c-1.082,6.241-1.653,12.658-1.653,19.209c0,13.412,10.561,23.905,27.085,31.486v-28.068V377.91  C170.515,378.841,169.732,379.518,168.96,380.475z" fill="#FFBF94"/><path d="M162.317,477.244v-23.268v-64.35c-4.035,6.188-7.48,12.794-10.241,19.748  c-0.001,0.003-0.002,0.006-0.003,0.009c-0.92,2.317-1.764,4.673-2.529,7.063c-0.013,0.038-0.024,0.076-0.037,0.115  c-0.753,2.36-1.43,4.754-2.028,7.179c-0.015,0.062-0.029,0.122-0.044,0.183c-0.59,2.412-1.102,4.854-1.532,7.324  c-0.006,0.033-0.013,0.065-0.019,0.099c0,0.001,0.001,0.001,0.001,0.003c-1.082,6.241-1.653,12.658-1.653,19.209  C144.232,461.339,151.059,470.231,162.317,477.244z" fill="#FFBF94"/><path d="M366.114,431.61c0-0.001,0.001-0.002,0.002-0.003c-0.007-0.037-0.015-0.072-0.021-0.109  c-0.434-2.484-0.948-4.939-1.543-7.365c-0.019-0.076-0.037-0.152-0.057-0.229c-0.598-2.415-1.273-4.8-2.025-7.149  c-0.025-0.08-0.051-0.16-0.077-0.241c-0.755-2.343-1.587-4.651-2.489-6.925c-0.033-0.081-0.064-0.163-0.098-0.244  c-0.453-1.135-0.925-2.262-1.414-3.377c-0.014-0.031-0.029-0.063-0.043-0.094c-0.477-1.084-0.972-2.159-1.482-3.225  c-0.036-0.077-0.072-0.154-0.109-0.23c-0.519-1.078-1.055-2.146-1.606-3.204c-0.046-0.088-0.093-0.175-0.14-0.264  c-0.53-1.009-1.074-2.009-1.635-2.999c-0.037-0.066-0.072-0.133-0.109-0.199c-0.58-1.02-1.176-2.029-1.786-3.029  c-0.079-0.129-0.159-0.256-0.237-0.385c-0.588-0.953-1.186-1.898-1.801-2.832c-0.03-0.047-0.061-0.094-0.091-0.141  c-0.636-0.962-1.287-1.912-1.951-2.854c-0.11-0.157-0.224-0.313-0.335-0.471c-0.654-0.918-1.319-1.828-2-2.725  c-0.01-0.014-0.02-0.027-0.029-0.039c-0.689-0.907-1.396-1.801-2.112-2.685c-0.14-0.173-0.28-0.345-0.422-0.518  c-0.717-0.875-1.442-1.743-2.185-2.595v0.001v76.927v28.066c16.736-7.594,27.45-18.145,27.45-31.654  C367.768,444.27,367.196,437.852,366.114,431.61z" fill="#FFBF94"/><path d="M366.116,431.607c-0.007-0.037-0.015-0.072-0.021-0.109c-0.434-2.484-0.948-4.939-1.543-7.365  c-0.019-0.076-0.037-0.152-0.057-0.229c-0.598-2.415-1.273-4.8-2.025-7.149c-0.025-0.08-0.051-0.16-0.077-0.241  c-0.755-2.343-1.587-4.651-2.489-6.925c-0.033-0.081-0.064-0.163-0.098-0.244c-0.453-1.135-0.925-2.262-1.414-3.377  c-0.014-0.031-0.029-0.063-0.043-0.094c-0.477-1.084-0.972-2.159-1.482-3.225c-0.036-0.077-0.072-0.154-0.109-0.23  c-0.519-1.078-1.055-2.146-1.606-3.204c-0.046-0.088-0.093-0.175-0.14-0.264c-0.53-1.009-1.074-2.009-1.635-2.999  c-0.037-0.066-0.072-0.133-0.109-0.199c-0.58-1.02-1.176-2.029-1.786-3.029c-0.079-0.129-0.159-0.256-0.237-0.385  c-0.303-0.49-0.617-0.971-0.926-1.455v86.227c10.883-6.949,17.45-15.713,17.45-26.289c0-6.551-0.571-12.969-1.653-19.21  C366.114,431.609,366.115,431.608,366.116,431.607z" fill="#FFBF94"/><path d="M169.465,377.041c-7.869,0-14.247,6.378-14.247,14.246c0,4.84,2.418,9.108,6.106,11.684  c-1.284,2.14-2.036,4.635-2.036,7.313c0,5.047,2.632,9.471,6.591,12.002c-0.746,1.729-1.164,3.633-1.164,5.637  c0,5.128,2.719,9.609,6.784,12.119v-63C170.833,376.945,170.158,377.041,169.465,377.041z" fill="#FFFFFF"/><path d="M342.535,377.041c7.868,0,14.247,6.378,14.247,14.246c0,4.84-2.418,9.108-6.107,11.684  c1.285,2.14,2.037,4.635,2.037,7.313c0,5.047-2.633,9.471-6.592,12.002c0.746,1.729,1.164,3.633,1.164,5.637  c0,5.128-2.719,9.609-6.784,12.119v-63C341.167,376.945,341.843,377.041,342.535,377.041z" fill="#FFFFFF"/><circle cx="174.202" cy="268.334" fill="#F97A7A" r="30.538"/><circle cx="337.799" cy="268.334" fill="#F97A7A" r="30.538"/><circle cx="208.326" cy="214.893" fill="#493E2F" r="17.45"/><circle cx="303.426" cy="214.893" fill="#493E2F" r="17.45"/><path d="M256.545,292.213c-9.077,0-18.154-3.455-25.065-10.365c-2.343-2.344-2.343-6.143,0-8.486  c2.343-2.342,6.143-2.342,8.485,0c9.144,9.145,24.018,9.143,33.16,0c2.343-2.342,6.143-2.342,8.485,0  c2.344,2.344,2.344,6.143,0,8.486C274.7,288.758,265.622,292.213,256.545,292.213z" fill="#F97A7A"/></svg>