<?xml version="1.0" encoding="iso-8859-1"?>
<!-- Uploaded to: SVG Repo, www.svgrepo.com, Generator: SVG Repo Mixer Tools -->
<svg height="800px" width="800px" version="1.1" id="Layer_1" xmlns="http://www.w3.org/2000/svg" xmlns:xlink="http://www.w3.org/1999/xlink" 
	 viewBox="0 0 512 512" xml:space="preserve">
<path style="fill:#A67C52;" d="M456.218,476.949c0,19.355-15.691,35.046-35.046,35.046H90.833c-9.671,0-18.439-3.92-24.777-10.27
	c-6.35-6.338-10.27-15.093-10.27-24.777c0-13.384,7.608-25.595,19.623-31.481l10.551-5.153
	c12.016-5.886,19.636-18.097,19.636-31.481V284.353c0-41.53,16.839-79.129,44.046-106.348
	c27.219-27.219,64.817-44.058,106.36-44.058c83.061,0,150.406,67.345,150.406,150.406v124.481c0,11.906,6.032,22.884,15.826,29.307
	c1.209,0.794,2.479,1.526,3.81,2.174l10.538,5.153c6.008,2.943,10.917,7.461,14.324,12.932
	C454.313,463.858,456.218,470.257,456.218,476.949z"/>
<g>
	<path style="fill:#936841;" d="M99.953,476.951L99.953,476.951c0-13.38,7.619-25.592,19.634-31.477l10.54-5.16
		c12.017-5.885,19.634-18.097,19.634-31.477V284.356c0-75.564,55.726-138.105,128.323-148.789
		c-7.208-1.061-14.581-1.618-22.085-1.618l0,0c-83.068,0-150.408,67.34-150.408,150.408v124.48c0,13.38-7.619,25.592-19.634,31.477
		l-10.54,5.16c-12.017,5.885-19.634,18.097-19.634,31.477l0,0c0,19.357,15.691,35.049,35.049,35.049h44.17
		C115.644,512,99.953,496.309,99.953,476.951z"/>
	<path style="fill:#936841;" d="M288.957,185.076c0,0-0.264-0.473-0.758-1.359c-0.469-0.895-1.178-2.191-2-3.806
		c-1.71-3.243-4.027-7.83-6.935-12.971c-2.894-5.117-6.421-10.89-10.64-15.796c-2.106-2.409-4.394-4.606-6.634-6.016
		c-2.265-1.445-4.226-2.022-5.991-2.021c-1.763,0-3.717,0.587-5.977,2.033c-2.235,1.413-4.524,3.606-6.625,6.018
		c-2.099,2.442-4.038,5.129-5.814,7.82c-1.767,2.699-3.372,5.403-4.82,7.973c-1.464,2.564-2.767,4.999-3.92,7.195
		c-1.17,2.229-2.189,4.17-3.03,5.77c-0.829,1.629-1.537,2.918-2.008,3.805c-0.497,0.887-0.762,1.358-0.762,1.358
		s-0.1-0.532-0.288-1.531c-0.182-1.001-0.382-2.465-0.554-4.341c-0.313-3.742-0.459-9.134,0.485-15.601
		c0.479-3.23,1.217-6.727,2.368-10.394c1.149-3.668,2.744-7.498,4.985-11.345c2.287-3.816,5.176-7.731,9.43-11.072
		c2.12-1.653,4.577-3.172,7.394-4.257c1.403-0.547,2.893-0.987,4.43-1.285c0.802-0.16,1.81-0.272,2.71-0.366
		c0.134-0.013,0.215-0.02,0.265-0.021l0.19-0.01l0.381-0.02l0.381-0.02l0.782-0.024c3.171,0.011,6.335,0.646,9.134,1.752
		c2.815,1.088,5.27,2.605,7.387,4.262c4.248,3.342,7.139,7.252,9.421,11.071c2.237,3.847,3.832,7.675,4.979,11.343
		c1.152,3.666,1.89,7.162,2.369,10.391c0.948,6.463,0.807,11.855,0.499,15.595c-0.165,1.888-0.366,3.347-0.547,4.34
		C289.056,184.544,288.957,185.076,288.957,185.076z"/>
	<path style="fill:#936841;" d="M422.234,438.142l-15.826,27.255v-56.562C406.408,420.741,412.441,431.718,422.234,438.142z"/>
	<path style="fill:#936841;" d="M329.294,365.64c-7.65-7.614-26.181-18.987-43.131-24.829c16.924-5.921,35.4-17.381,43.015-25.032
		c13.307-13.37,13.257-34.995-0.114-48.303c-13.37-13.307-34.995-13.257-48.303,0.114c-7.614,7.65-18.987,26.181-24.829,43.131
		c-5.921-16.924-17.381-35.4-25.032-43.015c-13.37-13.307-34.995-13.257-48.303,0.114c-13.307,13.37-13.257,34.995,0.114,48.303
		c7.65,7.614,26.181,18.987,43.131,24.829c-16.924,5.921-35.4,17.381-43.015,25.032c-13.307,13.37-13.257,34.995,0.114,48.303
		c13.37,13.307,34.995,13.257,48.303-0.114c7.614-7.65,18.987-26.181,24.829-43.131c5.921,16.924,17.381,35.4,25.032,43.015
		c13.37,13.307,34.995,13.257,48.303-0.114C342.716,400.573,342.663,378.946,329.294,365.64z"/>
</g>
<path style="fill:#A67C52;" d="M255.999,103.748c29.841,0,54.031-33.356,54.031-74.503c0-31.73-14.385-26.117-34.652-21.886
	C270.741,2.861,263.782,0,255.999,0c-7.783,0-14.743,2.861-19.379,7.358c-20.267-4.231-34.652-9.843-34.652,21.886
	C201.968,70.392,226.158,103.748,255.999,103.748z"/>
<path style="fill:#936841;" d="M233.23,42.852c0,0,0.233,0.563,0.669,1.619c0.415,1.059,1.018,2.613,1.727,4.566
	c0.72,1.955,1.554,4.333,2.484,7.035c0.91,2.684,1.935,5.712,3.055,9.016c2.205,6.54,4.706,14.124,7.71,21.68
	c1.515,3.737,3.188,7.522,5.047,10.638c0.909,1.54,1.926,2.888,2.672,3.627c0.352,0.347,0.664,0.548,0.589,0.466
	c-0.035-0.039-0.524-0.261-1.18-0.25c-1.498,0.061-0.385,0.015-0.705,0.027l0.054-0.005l0.109-0.01l0.217-0.017l0.435-0.034
	l0.109-0.009c0.021-0.002-0.067-0.004-0.096-0.005c-0.085,0-0.172,0.002-0.258,0.01c-0.171,0.015-0.342,0.046-0.506,0.093
	c-0.082,0.023-0.162,0.051-0.241,0.082c-0.092,0.038-0.057,0.012-0.09,0.024c-0.035,0.006-0.07,0.017-0.101,0.034
	c-0.032,0.016-0.062,0.037-0.088,0.062c-0.01-0.002-0.016-0.006-0.022-0.005c-0.078,0.082,0.231-0.125,0.582-0.468
	c0.742-0.74,1.761-2.087,2.663-3.629c1.854-3.118,3.53-6.901,5.04-10.638c1.506-3.767,2.862-7.57,4.149-11.222
	c1.277-3.657,2.458-7.179,3.556-10.455c1.121-3.303,2.149-6.33,3.061-9.014c0.933-2.704,1.768-5.076,2.492-7.036
	c0.712-1.96,1.316-3.507,1.734-4.562c0.438-1.056,0.673-1.619,0.673-1.619s0.134,0.595,0.387,1.71
	c0.242,1.115,0.559,2.751,0.868,4.837c0.63,4.173,1.266,10.15,1.266,17.362c-0.007,3.606-0.158,7.52-0.554,11.673
	c-0.392,4.155-1.044,8.541-2.081,13.109c-1.082,4.572-2.452,9.31-4.899,14.277c-1.259,2.48-2.734,5.06-5.151,7.711
	c-1.246,1.319-2.678,2.691-4.801,3.884l-0.774,0.435l-0.891,0.398l-0.906,0.369c-0.17,0.062-0.264,0.111-0.497,0.18l-0.663,0.187
	c-0.446,0.117-0.898,0.22-1.351,0.305l-0.68,0.116l-0.308,0.044l-0.109,0.01l-0.433,0.039l-0.217,0.02l-0.109,0.009L256,119.564
	c-2.993-0.007-5.754-0.973-7.801-2.152c-2.121-1.194-3.55-2.57-4.797-3.887c-2.413-2.652-3.889-5.231-5.143-7.713
	c-2.442-4.969-3.816-9.703-4.893-14.276c-2.055-9.129-2.612-17.565-2.633-24.778c-0.002-7.212,0.628-13.186,1.252-17.362
	c0.304-2.093,0.622-3.721,0.861-4.833C233.097,43.446,233.23,42.852,233.23,42.852z"/>
<path style="fill:#8CC63F;" d="M292.833,140.053h-73.667c-11.465,0-20.76-9.294-20.76-20.76v-4.555
	c0-11.465,9.294-20.76,20.76-20.76h73.667c11.465,0,20.76,9.294,20.76,20.76v4.555C313.592,130.759,304.298,140.053,292.833,140.053
	z"/>
</svg>