<?xml version="1.0" encoding="iso-8859-1"?>
<!-- Uploaded to: SVG Repo, www.svgrepo.com, Generator: SVG Repo Mixer Tools -->
<svg height="800px" width="800px" version="1.1" id="Layer_1" xmlns="http://www.w3.org/2000/svg" xmlns:xlink="http://www.w3.org/1999/xlink" 
	 viewBox="0 0 512 512" xml:space="preserve">
<path style="fill:#8CC63F;" d="M432.591,79.409v-1.471c0-43.043-34.894-77.937-77.937-77.937l0,0
	c-43.043,0-77.937,34.894-77.937,77.937v1.471v81.273c0,11.442-9.274,20.716-20.716,20.716l0,0
	c-11.442,0-20.716-9.274-20.716-20.716V79.409v-1.471c0-43.043-34.894-77.937-77.937-77.937l0,0
	c-43.043,0-77.937,34.894-77.937,77.937v1.471h-1.471c-43.043,0-77.937,34.894-77.937,77.937l0,0
	c0,43.043,34.894,77.937,77.937,77.937h1.471h81.273c11.442,0,20.716,9.274,20.716,20.716l0,0c0,11.442-9.274,20.716-20.716,20.716
	H79.409h-1.471c-43.043,0-77.937,34.894-77.937,77.937l0,0c0,43.043,34.894,77.937,77.937,77.937h1.471v1.471
	c0,43.043,34.894,77.937,77.937,77.937l0,0c43.043,0,77.937-34.894,77.937-77.937v-1.471v-81.273
	c0-11.442,9.274-20.716,20.716-20.716l0,0c11.442,0,20.716,9.274,20.716,20.716v81.273v1.465
	c-0.003,43.046,34.891,77.941,77.937,77.941l0,0c43.043,0,77.937-34.894,77.937-77.937v-1.471h1.471
	c43.043,0,77.937-34.894,77.937-77.937l0,0c0-43.046-34.897-77.94-77.941-77.937h-1.465h-81.273
	c-11.442,0-20.716-9.274-20.716-20.716l0,0c0-11.442,9.274-20.716,20.716-20.716h81.273h1.471c43.043,0,77.937-34.894,77.937-77.937
	l0,0c0-43.043-34.894-77.937-77.937-77.937h-1.472V79.409z"/>
<g>
	<path style="fill:#7EAF31;" d="M129.067,49.673c-14.098,14.1-22.811,33.585-22.821,55.103v1.476h-1.476
		c-43.035,0-77.933,34.898-77.933,77.933c0,14.646,4.035,28.342,11.061,40.045c-5.502-3.298-10.552-7.256-15.068-11.77
		C8.723,198.351,0,178.875,0,157.348c0-43.035,34.898-77.933,77.933-77.933h1.476v-1.476c0.009-21.518,8.723-41.003,22.821-55.102
		c14.109-14.109,33.604-22.832,55.112-22.832c28.41,0,53.262,15.192,66.882,37.898c-11.703-7.025-25.399-11.061-40.045-11.061
		C162.671,26.843,143.177,35.565,129.067,49.673z"/>
	<path style="fill:#7EAF31;" d="M382.931,49.672c14.1,14.1,22.811,33.585,22.821,55.102v1.476h1.476
		c43.035,0,77.933,34.898,77.933,77.933c0,14.646-4.035,28.342-11.061,40.045c5.502-3.298,10.552-7.256,15.068-11.77
		c14.109-14.109,22.83-33.585,22.83-55.112c0-43.035-34.898-77.933-77.933-77.933h-1.476v-1.476
		c-0.009-21.518-8.723-41.003-22.821-55.102c-14.109-14.108-33.604-22.83-55.111-22.83c-28.409,0-53.262,15.192-66.882,37.898
		c11.703-7.025,25.399-11.061,40.045-11.061C349.327,26.841,368.822,35.564,382.931,49.672z"/>
	<path style="fill:#7EAF31;" d="M382.933,462.326c14.1-14.098,22.811-33.585,22.821-55.102v-1.476h1.476
		c43.035,0,77.933-34.898,77.933-77.933c0-14.646-4.035-28.342-11.061-40.045c5.502,3.298,10.552,7.256,15.068,11.77
		c14.109,14.109,22.83,33.585,22.83,55.112c0,43.035-34.898,77.933-77.933,77.933h-1.476v1.476
		c-0.009,21.518-8.723,41.003-22.821,55.102c-14.109,14.109-33.604,22.83-55.112,22.83c-28.41,0-53.262-15.192-66.882-37.898
		c11.703,7.025,25.399,11.061,40.045,11.061C349.329,485.157,368.823,476.435,382.933,462.326z"/>
	<path style="fill:#7EAF31;" d="M129.069,462.327c-14.1-14.098-22.811-33.585-22.821-55.102v-1.476h-1.476
		c-43.035,0-77.933-34.898-77.933-77.933c0-14.646,4.035-28.342,11.061-40.045c-5.502,3.298-10.552,7.256-15.068,11.77
		c-14.108,14.109-22.83,33.585-22.83,55.112c0,43.035,34.898,77.933,77.933,77.933h1.476v1.476
		c0.009,21.518,8.723,41.003,22.821,55.102c14.109,14.109,33.604,22.83,55.112,22.83c28.41,0,53.262-15.192,66.882-37.898
		c-11.703,7.025-25.399,11.061-40.045,11.061C162.672,485.159,143.178,476.436,129.069,462.327z"/>
	<path style="fill:#7EAF31;" d="M283.715,270.129l-13.328-13.375l122.931-122.422c3.98-3.962,3.992-10.398,0.03-14.376
		c-3.963-3.978-10.401-3.992-14.376-0.03L256.046,242.362l-16.742-16.8L133.599,119.418c-3.963-3.978-10.401-3.992-14.376-0.03
		c-3.98,3.961-3.993,10.398-0.031,14.376L224.9,239.912l16.74,16.8l-53.327,53.114l-69.628,69.31
		c-3.98,3.961-3.993,10.398-0.033,14.376c1.987,1.995,4.596,2.994,7.204,2.994c2.594,0,5.189-0.987,7.172-2.962l122.953-122.443
		l13.328,13.376L378.4,394.052c1.987,1.995,4.596,2.993,7.204,2.993c2.594,0,5.189-0.987,7.173-2.962
		c3.978-3.961,3.992-10.398,0.031-14.376L283.715,270.129z"/>
</g>
</svg>