<?xml version="1.0" encoding="iso-8859-1"?>
<!-- Uploaded to: SVG Repo, www.svgrepo.com, Generator: SVG Repo Mixer Tools -->
<svg height="800px" width="800px" version="1.1" id="Layer_1" xmlns="http://www.w3.org/2000/svg" xmlns:xlink="http://www.w3.org/1999/xlink" 
	 viewBox="0 0 512 512" xml:space="preserve">
<g>
	<path style="fill:#8CE16E;" d="M107.684,37.231C138.359,29.101,226.984,13.298,256,91.839c0,0-48.097,32.876-97.103-16.13
		c-21.841-21.841-40.303-30.172-51.211-33.351C105.07,41.597,105.052,37.93,107.684,37.231z"/>
	<path style="fill:#8CE16E;" d="M355.923,54.125C336.211,48.714,273.764,36.601,256,93.98c0,0,28.248,22.81,63.559-7.604
		c15.946-13.735,29.838-22.876,37.069-27.305C358.679,57.815,358.242,54.762,355.923,54.125z"/>
</g>
<path style="fill:#7DC86E;" d="M357.608,55.679c-41.335-2.701-65.236,35.104-92.78,36.744V47.878c0-4.875-3.948-8.828-8.828-8.828
	c-4.879,0-8.828,3.953-8.828,8.828v42.361c-54.641-11.627-72.643-58.718-141.308-50.936c-0.225,1.242,0.316,2.616,1.821,3.055
	c10.908,3.178,29.372,11.51,51.211,33.351c36.372,36.372,72.198,27.641,88.276,20.722v48.552h17.655V98.815
	c11.018,4.478,31.289,7.752,54.731-12.439c15.946-13.735,29.838-22.876,37.069-27.305C357.91,58.285,358.122,56.839,357.608,55.679z
	"/>
<path style="fill:#FFB450;" d="M256,128.674c17.655,0,26.483-8.828,52.966-8.828C434.252,119.847,512,210.665,512,305.226
	c0,103.314-114.615,176.552-256,176.552S0,408.54,0,305.226c0-94.562,77.748-185.379,203.034-185.379
	C229.517,119.847,238.345,128.674,256,128.674z"/>
<g>
	<circle style="fill:#FFA041;" cx="317.793" cy="197.948" r="17.655"/>
	<circle style="fill:#FFA041;" cx="361.931" cy="250.913" r="8.828"/>
	<circle style="fill:#FFA041;" cx="392.828" cy="202.361" r="13.241"/>
	<path style="fill:#FFA041;" d="M375.172,453.95c-103.153,0-190.646-52.41-221.756-132.523c0.358,0.029,0.701,0.107,1.066,0.107
		c7.313,0,13.241-5.929,13.241-13.241s-5.929-13.241-13.241-13.241c-3.193,0-6.082,1.176-8.37,3.058
		c-3.186-13.478-4.872-27.587-4.872-42.242c0-1.663,0.158-3.313,0.193-4.973c9.66-0.106,17.462-7.951,17.462-17.635
		c0-8.561-6.094-15.69-14.18-17.305c5.937-34.921,19.474-67.975,39.737-95.362C70.126,129.09,0,215.441,0,305.226
		c0,103.315,114.615,176.552,256,176.552c53.21,0,102.623-10.381,143.567-28.828C391.548,453.607,383.412,453.95,375.172,453.95z"/>
</g>
</svg>