<?xml version="1.0" encoding="iso-8859-1"?>
<!-- Uploaded to: SVG Repo, www.svgrepo.com, Generator: SVG Repo Mixer Tools -->
<svg height="800px" width="800px" version="1.1" id="Layer_1" xmlns="http://www.w3.org/2000/svg" xmlns:xlink="http://www.w3.org/1999/xlink" 
	 viewBox="0 0 512 512" xml:space="preserve">
<path style="fill:#957856;" d="M461.913,166.957c-9.239,0-16.696,7.457-16.696,16.696v33.391c0,9.238-7.456,16.696-16.696,16.696
	h-16.696v-50.087c0-9.238-7.456-16.696-16.696-16.696c-9.239,0-16.696,7.457-16.696,16.696v66.783
	c0,9.238-7.456,16.696-16.696,16.696h-33.391c-9.239,0-16.696-7.457-16.696-16.696v-66.783c0-9.238-7.456-16.696-16.696-16.696
	h-66.783c-9.239,0-16.696,7.457-16.696,16.696v33.391c0,9.238-7.456,16.696-16.696,16.696h-33.391
	c-9.239,0-16.696-7.457-16.696-16.696v-33.391c0-9.238-7.456-16.696-16.696-16.696s-16.696,7.457-16.696,16.696v50.087H94.609
	c-9.239,0-16.696-7.457-16.696-16.696v-33.391c0-9.238-7.456-16.696-16.696-16.696s-16.696,7.457-16.696,16.696v33.391
	c0,27.603,22.483,50.087,50.087,50.087h16.696v16.696c0,27.603,22.483,50.087,50.087,50.087h33.391
	c9.239,0,16.696,7.457,16.696,16.696v144.696c0,9.238,7.456,16.696,16.696,16.696h100.174c9.239,0,16.696-7.457,16.696-16.696V384
	c0-9.238,7.456-16.696,16.696-16.696c28.271,0,50.087-23.597,50.087-50.087V267.13h16.696c27.603,0,50.087-22.483,50.087-50.087
	v-33.391C478.609,174.414,471.152,166.957,461.913,166.957z"/>
<path style="fill:#816952;" d="M478.609,183.652v33.391c0,27.603-22.483,50.087-50.087,50.087h-16.696v50.087
	c0,26.49-21.816,50.087-50.087,50.087c-9.239,0-16.696,7.457-16.696,16.696v111.304c0,9.238-7.456,16.696-16.696,16.696H256V166.957
	h38.957c9.239,0,16.696,7.457,16.696,16.696v66.783c0,9.238,7.456,16.696,16.696,16.696h33.391c9.239,0,16.696-7.457,16.696-16.696
	v-66.783c0-9.238,7.456-16.696,16.696-16.696c9.239,0,16.696,7.457,16.696,16.696v50.087h16.696c9.239,0,16.696-7.457,16.696-16.696
	v-33.391c0-9.238,7.456-16.696,16.696-16.696S478.609,174.414,478.609,183.652z"/>
<path style="fill:#7CCC92;" d="M429.746,68.675c-23.263-32.835-67.115-44.856-103.735-27.047
	c-17.141-23.708-43.076-37.843-70.01-40.96C252.327,0.223,248.545,0,244.871,0c-28.718,0-56.209,12.577-75.13,34.17
	c-38.735-3.784-69.566,11.687-87.154,34.616C41.517,58.323,0,89.823,0,133.565c0,36.842,29.94,66.783,66.783,66.783h378.435
	c36.843,0,66.783-29.941,66.783-66.783C512,89.711,470.817,58.435,429.746,68.675z"/>
<path style="fill:#B08B6E;" d="M261.565,378.435h-50.087v-33.391h50.087c9.22,0,16.696,7.475,16.696,16.696l0,0
	C278.261,370.96,270.786,378.435,261.565,378.435z"/>
<path style="fill:#997A60;" d="M345.043,445.217h-50.087c-9.22,0-16.696-7.475-16.696-16.696l0,0c0-9.22,7.475-16.696,16.696-16.696
	h50.087V445.217z"/>
<path style="fill:#34B772;" d="M512,133.565c0,36.842-29.94,66.783-66.783,66.783H256V0.668c26.935,3.117,52.87,17.252,70.01,40.96
	c36.619-17.809,80.473-5.788,103.735,27.047C470.817,58.435,512,89.711,512,133.565z"/>
<path style="fill:#997A60;" d="M261.565,345.043H256v33.391h5.565c9.22,0,16.696-7.475,16.696-16.696
	C278.261,352.519,270.786,345.043,261.565,345.043z"/>
</svg>